<?xml version="1.0" encoding="utf-8" standalone="no"?>
<!DOCTYPE svg PUBLIC "-//W3C//DTD SVG 1.1//EN"
  "http://www.w3.org/Graphics/SVG/1.1/DTD/svg11.dtd">
<svg xmlns:xlink="http://www.w3.org/1999/xlink" width="576pt" height="432pt" viewBox="0 0 576 432" xmlns="http://www.w3.org/2000/svg" version="1.1">
 <metadata>
  <rdf:RDF xmlns:dc="http://purl.org/dc/elements/1.1/" xmlns:cc="http://creativecommons.org/ns#" xmlns:rdf="http://www.w3.org/1999/02/22-rdf-syntax-ns#">
   <cc:Work>
    <dc:type rdf:resource="http://purl.org/dc/dcmitype/StillImage"/>
    <dc:date>2025-06-05T02:51:34.763483</dc:date>
    <dc:format>image/svg+xml</dc:format>
    <dc:creator>
     <cc:Agent>
      <dc:title>Matplotlib v3.10.0, https://matplotlib.org/</dc:title>
     </cc:Agent>
    </dc:creator>
   </cc:Work>
  </rdf:RDF>
 </metadata>
 <defs>
  <style type="text/css">*{stroke-linejoin: round; stroke-linecap: butt}</style>
 </defs>
 <g id="figure_1">
  <g id="patch_1">
   <path d="M 0 432 
L 576 432 
L 576 0 
L 0 0 
z
" style="fill: #ffffff"/>
  </g>
  <g id="axes_1">
   <g id="patch_2">
    <path d="M 72 384.48 
L 518.4 384.48 
L 518.4 51.84 
L 72 51.84 
z
" style="fill: #ffffff"/>
   </g>
   <g id="PathCollection_1">
    <defs>
     <path id="m25465d2ed6" d="M 0 3 
C 0.795609 3 1.55874 2.683901 2.12132 2.12132 
C 2.683901 1.55874 3 0.795609 3 0 
C 3 -0.795609 2.683901 -1.55874 2.12132 -2.12132 
C 1.55874 -2.683901 0.795609 -3 0 -3 
C -0.795609 -3 -1.55874 -2.683901 -2.12132 -2.12132 
C -2.683901 -1.55874 -3 -0.795609 -3 0 
C -3 0.795609 -2.683901 1.55874 -2.12132 2.12132 
C -1.55874 2.683901 -0.795609 3 0 3 
z
" style="stroke: #008000"/>
    </defs>
    <g clip-path="url(#p6a63a4fffb)">
     <use xlink:href="#m25465d2ed6" x="385.891516" y="339.12" style="fill: #008000; stroke: #008000"/>
     <use xlink:href="#m25465d2ed6" x="92.290909" y="293.76" style="fill: #008000; stroke: #008000"/>
     <use xlink:href="#m25465d2ed6" x="148.29785" y="308.88" style="fill: #008000; stroke: #008000"/>
     <use xlink:href="#m25465d2ed6" x="173.329278" y="293.76" style="fill: #008000; stroke: #008000"/>
     <use xlink:href="#m25465d2ed6" x="134.299254" y="324" style="fill: #008000; stroke: #008000"/>
     <use xlink:href="#m25465d2ed6" x="247.918555" y="293.76" style="fill: #008000; stroke: #008000"/>
     <use xlink:href="#m25465d2ed6" x="252.047163" y="324" style="fill: #008000; stroke: #008000"/>
     <use xlink:href="#m25465d2ed6" x="137.013006" y="354.24" style="fill: #008000; stroke: #008000"/>
     <use xlink:href="#m25465d2ed6" x="169.318247" y="278.64" style="fill: #008000; stroke: #008000"/>
     <use xlink:href="#m25465d2ed6" x="218.467069" y="369.36" style="fill: #008000; stroke: #008000"/>
     <use xlink:href="#m25465d2ed6" x="178.921595" y="248.4" style="fill: #008000; stroke: #008000"/>
     <use xlink:href="#m25465d2ed6" x="272.017664" y="339.12" style="fill: #008000; stroke: #008000"/>
     <use xlink:href="#m25465d2ed6" x="313.265448" y="263.52" style="fill: #008000; stroke: #008000"/>
     <use xlink:href="#m25465d2ed6" x="216.058442" y="278.64" style="fill: #008000; stroke: #008000"/>
     <use xlink:href="#m25465d2ed6" x="228.948199" y="248.4" style="fill: #008000; stroke: #008000"/>
     <use xlink:href="#m25465d2ed6" x="361.391447" y="263.52" style="fill: #008000; stroke: #008000"/>
     <use xlink:href="#m25465d2ed6" x="106.914616" y="324" style="fill: #008000; stroke: #008000"/>
     <use xlink:href="#m25465d2ed6" x="193.522609" y="354.24" style="fill: #008000; stroke: #008000"/>
     <use xlink:href="#m25465d2ed6" x="166.345398" y="339.12" style="fill: #008000; stroke: #008000"/>
     <use xlink:href="#m25465d2ed6" x="230.139992" y="339.12" style="fill: #008000; stroke: #008000"/>
     <use xlink:href="#m25465d2ed6" x="177.743767" y="248.4" style="fill: #008000; stroke: #008000"/>
     <use xlink:href="#m25465d2ed6" x="278.938597" y="324" style="fill: #008000; stroke: #008000"/>
     <use xlink:href="#m25465d2ed6" x="312.093807" y="263.52" style="fill: #008000; stroke: #008000"/>
     <use xlink:href="#m25465d2ed6" x="221.666657" y="369.36" style="fill: #008000; stroke: #008000"/>
     <use xlink:href="#m25465d2ed6" x="223.34869" y="369.36" style="fill: #008000; stroke: #008000"/>
     <use xlink:href="#m25465d2ed6" x="195.47977" y="354.24" style="fill: #008000; stroke: #008000"/>
     <use xlink:href="#m25465d2ed6" x="214.965225" y="324" style="fill: #008000; stroke: #008000"/>
     <use xlink:href="#m25465d2ed6" x="125.651058" y="354.24" style="fill: #008000; stroke: #008000"/>
     <use xlink:href="#m25465d2ed6" x="142.651543" y="339.12" style="fill: #008000; stroke: #008000"/>
     <use xlink:href="#m25465d2ed6" x="190.603098" y="293.76" style="fill: #008000; stroke: #008000"/>
     <use xlink:href="#m25465d2ed6" x="208.693796" y="248.4" style="fill: #008000; stroke: #008000"/>
     <use xlink:href="#m25465d2ed6" x="184.02926" y="339.12" style="fill: #008000; stroke: #008000"/>
     <use xlink:href="#m25465d2ed6" x="263.161258" y="354.24" style="fill: #008000; stroke: #008000"/>
     <use xlink:href="#m25465d2ed6" x="219.337434" y="293.76" style="fill: #008000; stroke: #008000"/>
     <use xlink:href="#m25465d2ed6" x="498.109091" y="369.36" style="fill: #008000; stroke: #008000"/>
     <use xlink:href="#m25465d2ed6" x="231.133028" y="263.52" style="fill: #008000; stroke: #008000"/>
     <use xlink:href="#m25465d2ed6" x="202.018854" y="339.12" style="fill: #008000; stroke: #008000"/>
     <use xlink:href="#m25465d2ed6" x="297.758799" y="354.24" style="fill: #008000; stroke: #008000"/>
     <use xlink:href="#m25465d2ed6" x="188.571161" y="354.24" style="fill: #008000; stroke: #008000"/>
     <use xlink:href="#m25465d2ed6" x="250.927166" y="354.24" style="fill: #008000; stroke: #008000"/>
     <use xlink:href="#m25465d2ed6" x="216.7051" y="278.64" style="fill: #008000; stroke: #008000"/>
     <use xlink:href="#m25465d2ed6" x="188.459136" y="354.24" style="fill: #008000; stroke: #008000"/>
     <use xlink:href="#m25465d2ed6" x="189.736601" y="248.4" style="fill: #008000; stroke: #008000"/>
     <use xlink:href="#m25465d2ed6" x="452.31935" y="263.52" style="fill: #008000; stroke: #008000"/>
     <use xlink:href="#m25465d2ed6" x="158.239256" y="278.64" style="fill: #008000; stroke: #008000"/>
     <use xlink:href="#m25465d2ed6" x="188.779575" y="293.76" style="fill: #008000; stroke: #008000"/>
     <use xlink:href="#m25465d2ed6" x="301.819999" y="339.12" style="fill: #008000; stroke: #008000"/>
     <use xlink:href="#m25465d2ed6" x="210.822994" y="324" style="fill: #008000; stroke: #008000"/>
     <use xlink:href="#m25465d2ed6" x="150.243165" y="308.88" style="fill: #008000; stroke: #008000"/>
     <use xlink:href="#m25465d2ed6" x="313.159956" y="369.36" style="fill: #008000; stroke: #008000"/>
     <use xlink:href="#m25465d2ed6" x="183.590434" y="278.64" style="fill: #008000; stroke: #008000"/>
     <use xlink:href="#m25465d2ed6" x="212.544835" y="369.36" style="fill: #008000; stroke: #008000"/>
     <use xlink:href="#m25465d2ed6" x="260.513103" y="354.24" style="fill: #008000; stroke: #008000"/>
     <use xlink:href="#m25465d2ed6" x="141.573464" y="339.12" style="fill: #008000; stroke: #008000"/>
     <use xlink:href="#m25465d2ed6" x="177.014538" y="369.36" style="fill: #008000; stroke: #008000"/>
     <use xlink:href="#m25465d2ed6" x="344.681761" y="293.76" style="fill: #008000; stroke: #008000"/>
     <use xlink:href="#m25465d2ed6" x="242.225623" y="324" style="fill: #008000; stroke: #008000"/>
     <use xlink:href="#m25465d2ed6" x="113.384739" y="278.64" style="fill: #008000; stroke: #008000"/>
     <use xlink:href="#m25465d2ed6" x="150.974405" y="263.52" style="fill: #008000; stroke: #008000"/>
     <use xlink:href="#m25465d2ed6" x="245.81086" y="278.64" style="fill: #008000; stroke: #008000"/>
     <use xlink:href="#m25465d2ed6" x="146.746745" y="308.88" style="fill: #008000; stroke: #008000"/>
     <use xlink:href="#m25465d2ed6" x="219.373782" y="248.4" style="fill: #008000; stroke: #008000"/>
     <use xlink:href="#m25465d2ed6" x="182.416554" y="324" style="fill: #008000; stroke: #008000"/>
     <use xlink:href="#m25465d2ed6" x="192.878082" y="263.52" style="fill: #008000; stroke: #008000"/>
     <use xlink:href="#m25465d2ed6" x="225.702098" y="233.28" style="fill: #008000; stroke: #008000"/>
     <use xlink:href="#m25465d2ed6" x="215.113817" y="339.12" style="fill: #008000; stroke: #008000"/>
     <use xlink:href="#m25465d2ed6" x="273.429966" y="354.24" style="fill: #008000; stroke: #008000"/>
     <use xlink:href="#m25465d2ed6" x="177.81805" y="263.52" style="fill: #008000; stroke: #008000"/>
     <use xlink:href="#m25465d2ed6" x="150.453345" y="369.36" style="fill: #008000; stroke: #008000"/>
     <use xlink:href="#m25465d2ed6" x="187.398064" y="324" style="fill: #008000; stroke: #008000"/>
     <use xlink:href="#m25465d2ed6" x="168.710473" y="278.64" style="fill: #008000; stroke: #008000"/>
     <use xlink:href="#m25465d2ed6" x="271.48341" y="308.88" style="fill: #008000; stroke: #008000"/>
     <use xlink:href="#m25465d2ed6" x="148.844443" y="293.76" style="fill: #008000; stroke: #008000"/>
     <use xlink:href="#m25465d2ed6" x="271.918198" y="278.64" style="fill: #008000; stroke: #008000"/>
     <use xlink:href="#m25465d2ed6" x="259.340912" y="339.12" style="fill: #008000; stroke: #008000"/>
     <use xlink:href="#m25465d2ed6" x="165.266773" y="339.12" style="fill: #008000; stroke: #008000"/>
     <use xlink:href="#m25465d2ed6" x="149.548768" y="339.12" style="fill: #008000; stroke: #008000"/>
     <use xlink:href="#m25465d2ed6" x="290.232169" y="308.88" style="fill: #008000; stroke: #008000"/>
     <use xlink:href="#m25465d2ed6" x="189.3849" y="308.88" style="fill: #008000; stroke: #008000"/>
     <use xlink:href="#m25465d2ed6" x="160.677445" y="308.88" style="fill: #008000; stroke: #008000"/>
     <use xlink:href="#m25465d2ed6" x="106.918985" y="308.88" style="fill: #008000; stroke: #008000"/>
     <use xlink:href="#m25465d2ed6" x="142.171057" y="369.36" style="fill: #008000; stroke: #008000"/>
     <use xlink:href="#m25465d2ed6" x="167.575322" y="278.64" style="fill: #008000; stroke: #008000"/>
     <use xlink:href="#m25465d2ed6" x="162.075245" y="263.52" style="fill: #008000; stroke: #008000"/>
     <use xlink:href="#m25465d2ed6" x="128.279202" y="308.88" style="fill: #008000; stroke: #008000"/>
     <use xlink:href="#m25465d2ed6" x="158.049126" y="369.36" style="fill: #008000; stroke: #008000"/>
     <use xlink:href="#m25465d2ed6" x="102.529729" y="248.4" style="fill: #008000; stroke: #008000"/>
     <use xlink:href="#m25465d2ed6" x="208.860349" y="263.52" style="fill: #008000; stroke: #008000"/>
     <use xlink:href="#m25465d2ed6" x="203.310182" y="308.88" style="fill: #008000; stroke: #008000"/>
     <use xlink:href="#m25465d2ed6" x="245.698758" y="369.36" style="fill: #008000; stroke: #008000"/>
    </g>
   </g>
   <g id="PathCollection_2">
    <defs>
     <path id="ma51f42e7ed" d="M 0 3 
C 0.795609 3 1.55874 2.683901 2.12132 2.12132 
C 2.683901 1.55874 3 0.795609 3 0 
C 3 -0.795609 2.683901 -1.55874 2.12132 -2.12132 
C 1.55874 -2.683901 0.795609 -3 0 -3 
C -0.795609 -3 -1.55874 -2.683901 -2.12132 -2.12132 
C -2.683901 -1.55874 -3 -0.795609 -3 0 
C -3 0.795609 -2.683901 1.55874 -2.12132 2.12132 
C -1.55874 2.683901 -0.795609 3 0 3 
z
" style="stroke: #0000ff"/>
    </defs>
    <g clip-path="url(#p6a63a4fffb)">
     <use xlink:href="#ma51f42e7ed" x="284.612793" y="187.92" style="fill: #0000ff; stroke: #0000ff"/>
     <use xlink:href="#ma51f42e7ed" x="296.70887" y="218.16" style="fill: #0000ff; stroke: #0000ff"/>
     <use xlink:href="#ma51f42e7ed" x="222.502481" y="187.92" style="fill: #0000ff; stroke: #0000ff"/>
     <use xlink:href="#ma51f42e7ed" x="197.052778" y="218.16" style="fill: #0000ff; stroke: #0000ff"/>
     <use xlink:href="#ma51f42e7ed" x="141.078195" y="172.8" style="fill: #0000ff; stroke: #0000ff"/>
     <use xlink:href="#ma51f42e7ed" x="193.564467" y="187.92" style="fill: #0000ff; stroke: #0000ff"/>
     <use xlink:href="#ma51f42e7ed" x="190.512187" y="203.04" style="fill: #0000ff; stroke: #0000ff"/>
     <use xlink:href="#ma51f42e7ed" x="140.81797" y="142.56" style="fill: #0000ff; stroke: #0000ff"/>
     <use xlink:href="#ma51f42e7ed" x="256.372391" y="203.04" style="fill: #0000ff; stroke: #0000ff"/>
     <use xlink:href="#ma51f42e7ed" x="150.492447" y="203.04" style="fill: #0000ff; stroke: #0000ff"/>
     <use xlink:href="#ma51f42e7ed" x="310.276357" y="66.96" style="fill: #0000ff; stroke: #0000ff"/>
     <use xlink:href="#ma51f42e7ed" x="237.140766" y="112.32" style="fill: #0000ff; stroke: #0000ff"/>
     <use xlink:href="#ma51f42e7ed" x="132.045821" y="66.96" style="fill: #0000ff; stroke: #0000ff"/>
     <use xlink:href="#ma51f42e7ed" x="331.952708" y="172.8" style="fill: #0000ff; stroke: #0000ff"/>
     <use xlink:href="#ma51f42e7ed" x="191.624201" y="112.32" style="fill: #0000ff; stroke: #0000ff"/>
     <use xlink:href="#ma51f42e7ed" x="184.010427" y="218.16" style="fill: #0000ff; stroke: #0000ff"/>
     <use xlink:href="#ma51f42e7ed" x="187.597789" y="218.16" style="fill: #0000ff; stroke: #0000ff"/>
     <use xlink:href="#ma51f42e7ed" x="217.26811" y="157.68" style="fill: #0000ff; stroke: #0000ff"/>
     <use xlink:href="#ma51f42e7ed" x="214.23174" y="218.16" style="fill: #0000ff; stroke: #0000ff"/>
     <use xlink:href="#ma51f42e7ed" x="135.063019" y="127.44" style="fill: #0000ff; stroke: #0000ff"/>
     <use xlink:href="#ma51f42e7ed" x="235.043912" y="187.92" style="fill: #0000ff; stroke: #0000ff"/>
     <use xlink:href="#ma51f42e7ed" x="176.585455" y="127.44" style="fill: #0000ff; stroke: #0000ff"/>
     <use xlink:href="#ma51f42e7ed" x="185.625786" y="157.68" style="fill: #0000ff; stroke: #0000ff"/>
     <use xlink:href="#ma51f42e7ed" x="305.224029" y="187.92" style="fill: #0000ff; stroke: #0000ff"/>
     <use xlink:href="#ma51f42e7ed" x="150.947275" y="172.8" style="fill: #0000ff; stroke: #0000ff"/>
     <use xlink:href="#ma51f42e7ed" x="158.153773" y="66.96" style="fill: #0000ff; stroke: #0000ff"/>
     <use xlink:href="#ma51f42e7ed" x="128.401889" y="187.92" style="fill: #0000ff; stroke: #0000ff"/>
    </g>
   </g>
   <g id="matplotlib.axis_1">
    <g id="xtick_1">
     <g id="line2d_1">
      <path d="M 88.735306 384.48 
L 88.735306 51.84 
" clip-path="url(#p6a63a4fffb)" style="fill: none; stroke: #b0b0b0; stroke-width: 0.8; stroke-linecap: square"/>
     </g>
     <g id="line2d_2">
      <defs>
       <path id="m26334eda3f" d="M 0 0 
L 0 3.5 
" style="stroke: #000000; stroke-width: 0.8"/>
      </defs>
      <g>
       <use xlink:href="#m26334eda3f" x="88.735306" y="384.48" style="stroke: #000000; stroke-width: 0.8"/>
      </g>
     </g>
     <g id="text_1">
      <!-- 1 -->
      <g transform="translate(85.554056 399.078438) scale(0.1 -0.1)">
       <defs>
        <path id="DejaVuSans-31" d="M 794 531 
L 1825 531 
L 1825 4091 
L 703 3866 
L 703 4441 
L 1819 4666 
L 2450 4666 
L 2450 531 
L 3481 531 
L 3481 0 
L 794 0 
L 794 531 
z
" transform="scale(0.015625)"/>
       </defs>
       <use xlink:href="#DejaVuSans-31"/>
      </g>
     </g>
    </g>
    <g id="xtick_2">
     <g id="line2d_3">
      <path d="M 139.306435 384.48 
L 139.306435 51.84 
" clip-path="url(#p6a63a4fffb)" style="fill: none; stroke: #b0b0b0; stroke-width: 0.8; stroke-linecap: square"/>
     </g>
     <g id="line2d_4">
      <g>
       <use xlink:href="#m26334eda3f" x="139.306435" y="384.48" style="stroke: #000000; stroke-width: 0.8"/>
      </g>
     </g>
     <g id="text_2">
      <!-- 2 -->
      <g transform="translate(136.125185 399.078438) scale(0.1 -0.1)">
       <defs>
        <path id="DejaVuSans-32" d="M 1228 531 
L 3431 531 
L 3431 0 
L 469 0 
L 469 531 
Q 828 903 1448 1529 
Q 2069 2156 2228 2338 
Q 2531 2678 2651 2914 
Q 2772 3150 2772 3378 
Q 2772 3750 2511 3984 
Q 2250 4219 1831 4219 
Q 1534 4219 1204 4116 
Q 875 4013 500 3803 
L 500 4441 
Q 881 4594 1212 4672 
Q 1544 4750 1819 4750 
Q 2544 4750 2975 4387 
Q 3406 4025 3406 3419 
Q 3406 3131 3298 2873 
Q 3191 2616 2906 2266 
Q 2828 2175 2409 1742 
Q 1991 1309 1228 531 
z
" transform="scale(0.015625)"/>
       </defs>
       <use xlink:href="#DejaVuSans-32"/>
      </g>
     </g>
    </g>
    <g id="xtick_3">
     <g id="line2d_5">
      <path d="M 189.877563 384.48 
L 189.877563 51.84 
" clip-path="url(#p6a63a4fffb)" style="fill: none; stroke: #b0b0b0; stroke-width: 0.8; stroke-linecap: square"/>
     </g>
     <g id="line2d_6">
      <g>
       <use xlink:href="#m26334eda3f" x="189.877563" y="384.48" style="stroke: #000000; stroke-width: 0.8"/>
      </g>
     </g>
     <g id="text_3">
      <!-- 3 -->
      <g transform="translate(186.696313 399.078438) scale(0.1 -0.1)">
       <defs>
        <path id="DejaVuSans-33" d="M 2597 2516 
Q 3050 2419 3304 2112 
Q 3559 1806 3559 1356 
Q 3559 666 3084 287 
Q 2609 -91 1734 -91 
Q 1441 -91 1130 -33 
Q 819 25 488 141 
L 488 750 
Q 750 597 1062 519 
Q 1375 441 1716 441 
Q 2309 441 2620 675 
Q 2931 909 2931 1356 
Q 2931 1769 2642 2001 
Q 2353 2234 1838 2234 
L 1294 2234 
L 1294 2753 
L 1863 2753 
Q 2328 2753 2575 2939 
Q 2822 3125 2822 3475 
Q 2822 3834 2567 4026 
Q 2313 4219 1838 4219 
Q 1578 4219 1281 4162 
Q 984 4106 628 3988 
L 628 4550 
Q 988 4650 1302 4700 
Q 1616 4750 1894 4750 
Q 2613 4750 3031 4423 
Q 3450 4097 3450 3541 
Q 3450 3153 3228 2886 
Q 3006 2619 2597 2516 
z
" transform="scale(0.015625)"/>
       </defs>
       <use xlink:href="#DejaVuSans-33"/>
      </g>
     </g>
    </g>
    <g id="xtick_4">
     <g id="line2d_7">
      <path d="M 240.448692 384.48 
L 240.448692 51.84 
" clip-path="url(#p6a63a4fffb)" style="fill: none; stroke: #b0b0b0; stroke-width: 0.8; stroke-linecap: square"/>
     </g>
     <g id="line2d_8">
      <g>
       <use xlink:href="#m26334eda3f" x="240.448692" y="384.48" style="stroke: #000000; stroke-width: 0.8"/>
      </g>
     </g>
     <g id="text_4">
      <!-- 4 -->
      <g transform="translate(237.267442 399.078438) scale(0.1 -0.1)">
       <defs>
        <path id="DejaVuSans-34" d="M 2419 4116 
L 825 1625 
L 2419 1625 
L 2419 4116 
z
M 2253 4666 
L 3047 4666 
L 3047 1625 
L 3713 1625 
L 3713 1100 
L 3047 1100 
L 3047 0 
L 2419 0 
L 2419 1100 
L 313 1100 
L 313 1709 
L 2253 4666 
z
" transform="scale(0.015625)"/>
       </defs>
       <use xlink:href="#DejaVuSans-34"/>
      </g>
     </g>
    </g>
    <g id="xtick_5">
     <g id="line2d_9">
      <path d="M 291.01982 384.48 
L 291.01982 51.84 
" clip-path="url(#p6a63a4fffb)" style="fill: none; stroke: #b0b0b0; stroke-width: 0.8; stroke-linecap: square"/>
     </g>
     <g id="line2d_10">
      <g>
       <use xlink:href="#m26334eda3f" x="291.01982" y="384.48" style="stroke: #000000; stroke-width: 0.8"/>
      </g>
     </g>
     <g id="text_5">
      <!-- 5 -->
      <g transform="translate(287.83857 399.078438) scale(0.1 -0.1)">
       <defs>
        <path id="DejaVuSans-35" d="M 691 4666 
L 3169 4666 
L 3169 4134 
L 1269 4134 
L 1269 2991 
Q 1406 3038 1543 3061 
Q 1681 3084 1819 3084 
Q 2600 3084 3056 2656 
Q 3513 2228 3513 1497 
Q 3513 744 3044 326 
Q 2575 -91 1722 -91 
Q 1428 -91 1123 -41 
Q 819 9 494 109 
L 494 744 
Q 775 591 1075 516 
Q 1375 441 1709 441 
Q 2250 441 2565 725 
Q 2881 1009 2881 1497 
Q 2881 1984 2565 2268 
Q 2250 2553 1709 2553 
Q 1456 2553 1204 2497 
Q 953 2441 691 2322 
L 691 4666 
z
" transform="scale(0.015625)"/>
       </defs>
       <use xlink:href="#DejaVuSans-35"/>
      </g>
     </g>
    </g>
    <g id="xtick_6">
     <g id="line2d_11">
      <path d="M 341.590949 384.48 
L 341.590949 51.84 
" clip-path="url(#p6a63a4fffb)" style="fill: none; stroke: #b0b0b0; stroke-width: 0.8; stroke-linecap: square"/>
     </g>
     <g id="line2d_12">
      <g>
       <use xlink:href="#m26334eda3f" x="341.590949" y="384.48" style="stroke: #000000; stroke-width: 0.8"/>
      </g>
     </g>
     <g id="text_6">
      <!-- 6 -->
      <g transform="translate(338.409699 399.078438) scale(0.1 -0.1)">
       <defs>
        <path id="DejaVuSans-36" d="M 2113 2584 
Q 1688 2584 1439 2293 
Q 1191 2003 1191 1497 
Q 1191 994 1439 701 
Q 1688 409 2113 409 
Q 2538 409 2786 701 
Q 3034 994 3034 1497 
Q 3034 2003 2786 2293 
Q 2538 2584 2113 2584 
z
M 3366 4563 
L 3366 3988 
Q 3128 4100 2886 4159 
Q 2644 4219 2406 4219 
Q 1781 4219 1451 3797 
Q 1122 3375 1075 2522 
Q 1259 2794 1537 2939 
Q 1816 3084 2150 3084 
Q 2853 3084 3261 2657 
Q 3669 2231 3669 1497 
Q 3669 778 3244 343 
Q 2819 -91 2113 -91 
Q 1303 -91 875 529 
Q 447 1150 447 2328 
Q 447 3434 972 4092 
Q 1497 4750 2381 4750 
Q 2619 4750 2861 4703 
Q 3103 4656 3366 4563 
z
" transform="scale(0.015625)"/>
       </defs>
       <use xlink:href="#DejaVuSans-36"/>
      </g>
     </g>
    </g>
    <g id="xtick_7">
     <g id="line2d_13">
      <path d="M 392.162078 384.48 
L 392.162078 51.84 
" clip-path="url(#p6a63a4fffb)" style="fill: none; stroke: #b0b0b0; stroke-width: 0.8; stroke-linecap: square"/>
     </g>
     <g id="line2d_14">
      <g>
       <use xlink:href="#m26334eda3f" x="392.162078" y="384.48" style="stroke: #000000; stroke-width: 0.8"/>
      </g>
     </g>
     <g id="text_7">
      <!-- 7 -->
      <g transform="translate(388.980828 399.078438) scale(0.1 -0.1)">
       <defs>
        <path id="DejaVuSans-37" d="M 525 4666 
L 3525 4666 
L 3525 4397 
L 1831 0 
L 1172 0 
L 2766 4134 
L 525 4134 
L 525 4666 
z
" transform="scale(0.015625)"/>
       </defs>
       <use xlink:href="#DejaVuSans-37"/>
      </g>
     </g>
    </g>
    <g id="xtick_8">
     <g id="line2d_15">
      <path d="M 442.733206 384.48 
L 442.733206 51.84 
" clip-path="url(#p6a63a4fffb)" style="fill: none; stroke: #b0b0b0; stroke-width: 0.8; stroke-linecap: square"/>
     </g>
     <g id="line2d_16">
      <g>
       <use xlink:href="#m26334eda3f" x="442.733206" y="384.48" style="stroke: #000000; stroke-width: 0.8"/>
      </g>
     </g>
     <g id="text_8">
      <!-- 8 -->
      <g transform="translate(439.551956 399.078438) scale(0.1 -0.1)">
       <defs>
        <path id="DejaVuSans-38" d="M 2034 2216 
Q 1584 2216 1326 1975 
Q 1069 1734 1069 1313 
Q 1069 891 1326 650 
Q 1584 409 2034 409 
Q 2484 409 2743 651 
Q 3003 894 3003 1313 
Q 3003 1734 2745 1975 
Q 2488 2216 2034 2216 
z
M 1403 2484 
Q 997 2584 770 2862 
Q 544 3141 544 3541 
Q 544 4100 942 4425 
Q 1341 4750 2034 4750 
Q 2731 4750 3128 4425 
Q 3525 4100 3525 3541 
Q 3525 3141 3298 2862 
Q 3072 2584 2669 2484 
Q 3125 2378 3379 2068 
Q 3634 1759 3634 1313 
Q 3634 634 3220 271 
Q 2806 -91 2034 -91 
Q 1263 -91 848 271 
Q 434 634 434 1313 
Q 434 1759 690 2068 
Q 947 2378 1403 2484 
z
M 1172 3481 
Q 1172 3119 1398 2916 
Q 1625 2713 2034 2713 
Q 2441 2713 2670 2916 
Q 2900 3119 2900 3481 
Q 2900 3844 2670 4047 
Q 2441 4250 2034 4250 
Q 1625 4250 1398 4047 
Q 1172 3844 1172 3481 
z
" transform="scale(0.015625)"/>
       </defs>
       <use xlink:href="#DejaVuSans-38"/>
      </g>
     </g>
    </g>
    <g id="xtick_9">
     <g id="line2d_17">
      <path d="M 493.304335 384.48 
L 493.304335 51.84 
" clip-path="url(#p6a63a4fffb)" style="fill: none; stroke: #b0b0b0; stroke-width: 0.8; stroke-linecap: square"/>
     </g>
     <g id="line2d_18">
      <g>
       <use xlink:href="#m26334eda3f" x="493.304335" y="384.48" style="stroke: #000000; stroke-width: 0.8"/>
      </g>
     </g>
     <g id="text_9">
      <!-- 9 -->
      <g transform="translate(490.123085 399.078438) scale(0.1 -0.1)">
       <defs>
        <path id="DejaVuSans-39" d="M 703 97 
L 703 672 
Q 941 559 1184 500 
Q 1428 441 1663 441 
Q 2288 441 2617 861 
Q 2947 1281 2994 2138 
Q 2813 1869 2534 1725 
Q 2256 1581 1919 1581 
Q 1219 1581 811 2004 
Q 403 2428 403 3163 
Q 403 3881 828 4315 
Q 1253 4750 1959 4750 
Q 2769 4750 3195 4129 
Q 3622 3509 3622 2328 
Q 3622 1225 3098 567 
Q 2575 -91 1691 -91 
Q 1453 -91 1209 -44 
Q 966 3 703 97 
z
M 1959 2075 
Q 2384 2075 2632 2365 
Q 2881 2656 2881 3163 
Q 2881 3666 2632 3958 
Q 2384 4250 1959 4250 
Q 1534 4250 1286 3958 
Q 1038 3666 1038 3163 
Q 1038 2656 1286 2365 
Q 1534 2075 1959 2075 
z
" transform="scale(0.015625)"/>
       </defs>
       <use xlink:href="#DejaVuSans-39"/>
      </g>
     </g>
    </g>
    <g id="text_10">
     <!-- Average Displacement Magnitude -->
     <g transform="translate(210.626562 412.756563) scale(0.1 -0.1)">
      <defs>
       <path id="DejaVuSans-41" d="M 2188 4044 
L 1331 1722 
L 3047 1722 
L 2188 4044 
z
M 1831 4666 
L 2547 4666 
L 4325 0 
L 3669 0 
L 3244 1197 
L 1141 1197 
L 716 0 
L 50 0 
L 1831 4666 
z
" transform="scale(0.015625)"/>
       <path id="DejaVuSans-76" d="M 191 3500 
L 800 3500 
L 1894 563 
L 2988 3500 
L 3597 3500 
L 2284 0 
L 1503 0 
L 191 3500 
z
" transform="scale(0.015625)"/>
       <path id="DejaVuSans-65" d="M 3597 1894 
L 3597 1613 
L 953 1613 
Q 991 1019 1311 708 
Q 1631 397 2203 397 
Q 2534 397 2845 478 
Q 3156 559 3463 722 
L 3463 178 
Q 3153 47 2828 -22 
Q 2503 -91 2169 -91 
Q 1331 -91 842 396 
Q 353 884 353 1716 
Q 353 2575 817 3079 
Q 1281 3584 2069 3584 
Q 2775 3584 3186 3129 
Q 3597 2675 3597 1894 
z
M 3022 2063 
Q 3016 2534 2758 2815 
Q 2500 3097 2075 3097 
Q 1594 3097 1305 2825 
Q 1016 2553 972 2059 
L 3022 2063 
z
" transform="scale(0.015625)"/>
       <path id="DejaVuSans-72" d="M 2631 2963 
Q 2534 3019 2420 3045 
Q 2306 3072 2169 3072 
Q 1681 3072 1420 2755 
Q 1159 2438 1159 1844 
L 1159 0 
L 581 0 
L 581 3500 
L 1159 3500 
L 1159 2956 
Q 1341 3275 1631 3429 
Q 1922 3584 2338 3584 
Q 2397 3584 2469 3576 
Q 2541 3569 2628 3553 
L 2631 2963 
z
" transform="scale(0.015625)"/>
       <path id="DejaVuSans-61" d="M 2194 1759 
Q 1497 1759 1228 1600 
Q 959 1441 959 1056 
Q 959 750 1161 570 
Q 1363 391 1709 391 
Q 2188 391 2477 730 
Q 2766 1069 2766 1631 
L 2766 1759 
L 2194 1759 
z
M 3341 1997 
L 3341 0 
L 2766 0 
L 2766 531 
Q 2569 213 2275 61 
Q 1981 -91 1556 -91 
Q 1019 -91 701 211 
Q 384 513 384 1019 
Q 384 1609 779 1909 
Q 1175 2209 1959 2209 
L 2766 2209 
L 2766 2266 
Q 2766 2663 2505 2880 
Q 2244 3097 1772 3097 
Q 1472 3097 1187 3025 
Q 903 2953 641 2809 
L 641 3341 
Q 956 3463 1253 3523 
Q 1550 3584 1831 3584 
Q 2591 3584 2966 3190 
Q 3341 2797 3341 1997 
z
" transform="scale(0.015625)"/>
       <path id="DejaVuSans-67" d="M 2906 1791 
Q 2906 2416 2648 2759 
Q 2391 3103 1925 3103 
Q 1463 3103 1205 2759 
Q 947 2416 947 1791 
Q 947 1169 1205 825 
Q 1463 481 1925 481 
Q 2391 481 2648 825 
Q 2906 1169 2906 1791 
z
M 3481 434 
Q 3481 -459 3084 -895 
Q 2688 -1331 1869 -1331 
Q 1566 -1331 1297 -1286 
Q 1028 -1241 775 -1147 
L 775 -588 
Q 1028 -725 1275 -790 
Q 1522 -856 1778 -856 
Q 2344 -856 2625 -561 
Q 2906 -266 2906 331 
L 2906 616 
Q 2728 306 2450 153 
Q 2172 0 1784 0 
Q 1141 0 747 490 
Q 353 981 353 1791 
Q 353 2603 747 3093 
Q 1141 3584 1784 3584 
Q 2172 3584 2450 3431 
Q 2728 3278 2906 2969 
L 2906 3500 
L 3481 3500 
L 3481 434 
z
" transform="scale(0.015625)"/>
       <path id="DejaVuSans-20" transform="scale(0.015625)"/>
       <path id="DejaVuSans-44" d="M 1259 4147 
L 1259 519 
L 2022 519 
Q 2988 519 3436 956 
Q 3884 1394 3884 2338 
Q 3884 3275 3436 3711 
Q 2988 4147 2022 4147 
L 1259 4147 
z
M 628 4666 
L 1925 4666 
Q 3281 4666 3915 4102 
Q 4550 3538 4550 2338 
Q 4550 1131 3912 565 
Q 3275 0 1925 0 
L 628 0 
L 628 4666 
z
" transform="scale(0.015625)"/>
       <path id="DejaVuSans-69" d="M 603 3500 
L 1178 3500 
L 1178 0 
L 603 0 
L 603 3500 
z
M 603 4863 
L 1178 4863 
L 1178 4134 
L 603 4134 
L 603 4863 
z
" transform="scale(0.015625)"/>
       <path id="DejaVuSans-73" d="M 2834 3397 
L 2834 2853 
Q 2591 2978 2328 3040 
Q 2066 3103 1784 3103 
Q 1356 3103 1142 2972 
Q 928 2841 928 2578 
Q 928 2378 1081 2264 
Q 1234 2150 1697 2047 
L 1894 2003 
Q 2506 1872 2764 1633 
Q 3022 1394 3022 966 
Q 3022 478 2636 193 
Q 2250 -91 1575 -91 
Q 1294 -91 989 -36 
Q 684 19 347 128 
L 347 722 
Q 666 556 975 473 
Q 1284 391 1588 391 
Q 1994 391 2212 530 
Q 2431 669 2431 922 
Q 2431 1156 2273 1281 
Q 2116 1406 1581 1522 
L 1381 1569 
Q 847 1681 609 1914 
Q 372 2147 372 2553 
Q 372 3047 722 3315 
Q 1072 3584 1716 3584 
Q 2034 3584 2315 3537 
Q 2597 3491 2834 3397 
z
" transform="scale(0.015625)"/>
       <path id="DejaVuSans-70" d="M 1159 525 
L 1159 -1331 
L 581 -1331 
L 581 3500 
L 1159 3500 
L 1159 2969 
Q 1341 3281 1617 3432 
Q 1894 3584 2278 3584 
Q 2916 3584 3314 3078 
Q 3713 2572 3713 1747 
Q 3713 922 3314 415 
Q 2916 -91 2278 -91 
Q 1894 -91 1617 61 
Q 1341 213 1159 525 
z
M 3116 1747 
Q 3116 2381 2855 2742 
Q 2594 3103 2138 3103 
Q 1681 3103 1420 2742 
Q 1159 2381 1159 1747 
Q 1159 1113 1420 752 
Q 1681 391 2138 391 
Q 2594 391 2855 752 
Q 3116 1113 3116 1747 
z
" transform="scale(0.015625)"/>
       <path id="DejaVuSans-6c" d="M 603 4863 
L 1178 4863 
L 1178 0 
L 603 0 
L 603 4863 
z
" transform="scale(0.015625)"/>
       <path id="DejaVuSans-63" d="M 3122 3366 
L 3122 2828 
Q 2878 2963 2633 3030 
Q 2388 3097 2138 3097 
Q 1578 3097 1268 2742 
Q 959 2388 959 1747 
Q 959 1106 1268 751 
Q 1578 397 2138 397 
Q 2388 397 2633 464 
Q 2878 531 3122 666 
L 3122 134 
Q 2881 22 2623 -34 
Q 2366 -91 2075 -91 
Q 1284 -91 818 406 
Q 353 903 353 1747 
Q 353 2603 823 3093 
Q 1294 3584 2113 3584 
Q 2378 3584 2631 3529 
Q 2884 3475 3122 3366 
z
" transform="scale(0.015625)"/>
       <path id="DejaVuSans-6d" d="M 3328 2828 
Q 3544 3216 3844 3400 
Q 4144 3584 4550 3584 
Q 5097 3584 5394 3201 
Q 5691 2819 5691 2113 
L 5691 0 
L 5113 0 
L 5113 2094 
Q 5113 2597 4934 2840 
Q 4756 3084 4391 3084 
Q 3944 3084 3684 2787 
Q 3425 2491 3425 1978 
L 3425 0 
L 2847 0 
L 2847 2094 
Q 2847 2600 2669 2842 
Q 2491 3084 2119 3084 
Q 1678 3084 1418 2786 
Q 1159 2488 1159 1978 
L 1159 0 
L 581 0 
L 581 3500 
L 1159 3500 
L 1159 2956 
Q 1356 3278 1631 3431 
Q 1906 3584 2284 3584 
Q 2666 3584 2933 3390 
Q 3200 3197 3328 2828 
z
" transform="scale(0.015625)"/>
       <path id="DejaVuSans-6e" d="M 3513 2113 
L 3513 0 
L 2938 0 
L 2938 2094 
Q 2938 2591 2744 2837 
Q 2550 3084 2163 3084 
Q 1697 3084 1428 2787 
Q 1159 2491 1159 1978 
L 1159 0 
L 581 0 
L 581 3500 
L 1159 3500 
L 1159 2956 
Q 1366 3272 1645 3428 
Q 1925 3584 2291 3584 
Q 2894 3584 3203 3211 
Q 3513 2838 3513 2113 
z
" transform="scale(0.015625)"/>
       <path id="DejaVuSans-74" d="M 1172 4494 
L 1172 3500 
L 2356 3500 
L 2356 3053 
L 1172 3053 
L 1172 1153 
Q 1172 725 1289 603 
Q 1406 481 1766 481 
L 2356 481 
L 2356 0 
L 1766 0 
Q 1100 0 847 248 
Q 594 497 594 1153 
L 594 3053 
L 172 3053 
L 172 3500 
L 594 3500 
L 594 4494 
L 1172 4494 
z
" transform="scale(0.015625)"/>
       <path id="DejaVuSans-4d" d="M 628 4666 
L 1569 4666 
L 2759 1491 
L 3956 4666 
L 4897 4666 
L 4897 0 
L 4281 0 
L 4281 4097 
L 3078 897 
L 2444 897 
L 1241 4097 
L 1241 0 
L 628 0 
L 628 4666 
z
" transform="scale(0.015625)"/>
       <path id="DejaVuSans-75" d="M 544 1381 
L 544 3500 
L 1119 3500 
L 1119 1403 
Q 1119 906 1312 657 
Q 1506 409 1894 409 
Q 2359 409 2629 706 
Q 2900 1003 2900 1516 
L 2900 3500 
L 3475 3500 
L 3475 0 
L 2900 0 
L 2900 538 
Q 2691 219 2414 64 
Q 2138 -91 1772 -91 
Q 1169 -91 856 284 
Q 544 659 544 1381 
z
M 1991 3584 
L 1991 3584 
z
" transform="scale(0.015625)"/>
       <path id="DejaVuSans-64" d="M 2906 2969 
L 2906 4863 
L 3481 4863 
L 3481 0 
L 2906 0 
L 2906 525 
Q 2725 213 2448 61 
Q 2172 -91 1784 -91 
Q 1150 -91 751 415 
Q 353 922 353 1747 
Q 353 2572 751 3078 
Q 1150 3584 1784 3584 
Q 2172 3584 2448 3432 
Q 2725 3281 2906 2969 
z
M 947 1747 
Q 947 1113 1208 752 
Q 1469 391 1925 391 
Q 2381 391 2643 752 
Q 2906 1113 2906 1747 
Q 2906 2381 2643 2742 
Q 2381 3103 1925 3103 
Q 1469 3103 1208 2742 
Q 947 2381 947 1747 
z
" transform="scale(0.015625)"/>
      </defs>
      <use xlink:href="#DejaVuSans-41"/>
      <use xlink:href="#DejaVuSans-76" transform="translate(62.533203 0)"/>
      <use xlink:href="#DejaVuSans-65" transform="translate(121.712891 0)"/>
      <use xlink:href="#DejaVuSans-72" transform="translate(183.236328 0)"/>
      <use xlink:href="#DejaVuSans-61" transform="translate(224.349609 0)"/>
      <use xlink:href="#DejaVuSans-67" transform="translate(285.628906 0)"/>
      <use xlink:href="#DejaVuSans-65" transform="translate(349.105469 0)"/>
      <use xlink:href="#DejaVuSans-20" transform="translate(410.628906 0)"/>
      <use xlink:href="#DejaVuSans-44" transform="translate(442.416016 0)"/>
      <use xlink:href="#DejaVuSans-69" transform="translate(519.417969 0)"/>
      <use xlink:href="#DejaVuSans-73" transform="translate(547.201172 0)"/>
      <use xlink:href="#DejaVuSans-70" transform="translate(599.300781 0)"/>
      <use xlink:href="#DejaVuSans-6c" transform="translate(662.777344 0)"/>
      <use xlink:href="#DejaVuSans-61" transform="translate(690.560547 0)"/>
      <use xlink:href="#DejaVuSans-63" transform="translate(751.839844 0)"/>
      <use xlink:href="#DejaVuSans-65" transform="translate(806.820312 0)"/>
      <use xlink:href="#DejaVuSans-6d" transform="translate(868.34375 0)"/>
      <use xlink:href="#DejaVuSans-65" transform="translate(965.755859 0)"/>
      <use xlink:href="#DejaVuSans-6e" transform="translate(1027.279297 0)"/>
      <use xlink:href="#DejaVuSans-74" transform="translate(1090.658203 0)"/>
      <use xlink:href="#DejaVuSans-20" transform="translate(1129.867188 0)"/>
      <use xlink:href="#DejaVuSans-4d" transform="translate(1161.654297 0)"/>
      <use xlink:href="#DejaVuSans-61" transform="translate(1247.933594 0)"/>
      <use xlink:href="#DejaVuSans-67" transform="translate(1309.212891 0)"/>
      <use xlink:href="#DejaVuSans-6e" transform="translate(1372.689453 0)"/>
      <use xlink:href="#DejaVuSans-69" transform="translate(1436.068359 0)"/>
      <use xlink:href="#DejaVuSans-74" transform="translate(1463.851562 0)"/>
      <use xlink:href="#DejaVuSans-75" transform="translate(1503.060547 0)"/>
      <use xlink:href="#DejaVuSans-64" transform="translate(1566.439453 0)"/>
      <use xlink:href="#DejaVuSans-65" transform="translate(1629.916016 0)"/>
     </g>
    </g>
   </g>
   <g id="matplotlib.axis_2">
    <g id="ytick_1">
     <g id="line2d_19">
      <path d="M 72 369.36 
L 518.4 369.36 
" clip-path="url(#p6a63a4fffb)" style="fill: none; stroke: #b0b0b0; stroke-width: 0.8; stroke-linecap: square"/>
     </g>
     <g id="line2d_20">
      <defs>
       <path id="mf31f9c0a74" d="M 0 0 
L -3.5 0 
" style="stroke: #000000; stroke-width: 0.8"/>
      </defs>
      <g>
       <use xlink:href="#mf31f9c0a74" x="72" y="369.36" style="stroke: #000000; stroke-width: 0.8"/>
      </g>
     </g>
     <g id="text_11">
      <!-- 0.0 -->
      <g transform="translate(49.096875 373.159219) scale(0.1 -0.1)">
       <defs>
        <path id="DejaVuSans-30" d="M 2034 4250 
Q 1547 4250 1301 3770 
Q 1056 3291 1056 2328 
Q 1056 1369 1301 889 
Q 1547 409 2034 409 
Q 2525 409 2770 889 
Q 3016 1369 3016 2328 
Q 3016 3291 2770 3770 
Q 2525 4250 2034 4250 
z
M 2034 4750 
Q 2819 4750 3233 4129 
Q 3647 3509 3647 2328 
Q 3647 1150 3233 529 
Q 2819 -91 2034 -91 
Q 1250 -91 836 529 
Q 422 1150 422 2328 
Q 422 3509 836 4129 
Q 1250 4750 2034 4750 
z
" transform="scale(0.015625)"/>
        <path id="DejaVuSans-2e" d="M 684 794 
L 1344 794 
L 1344 0 
L 684 0 
L 684 794 
z
" transform="scale(0.015625)"/>
       </defs>
       <use xlink:href="#DejaVuSans-30"/>
       <use xlink:href="#DejaVuSans-2e" transform="translate(63.623047 0)"/>
       <use xlink:href="#DejaVuSans-30" transform="translate(95.410156 0)"/>
      </g>
     </g>
    </g>
    <g id="ytick_2">
     <g id="line2d_21">
      <path d="M 72 331.56 
L 518.4 331.56 
" clip-path="url(#p6a63a4fffb)" style="fill: none; stroke: #b0b0b0; stroke-width: 0.8; stroke-linecap: square"/>
     </g>
     <g id="line2d_22">
      <g>
       <use xlink:href="#mf31f9c0a74" x="72" y="331.56" style="stroke: #000000; stroke-width: 0.8"/>
      </g>
     </g>
     <g id="text_12">
      <!-- 2.5 -->
      <g transform="translate(49.096875 335.359219) scale(0.1 -0.1)">
       <use xlink:href="#DejaVuSans-32"/>
       <use xlink:href="#DejaVuSans-2e" transform="translate(63.623047 0)"/>
       <use xlink:href="#DejaVuSans-35" transform="translate(95.410156 0)"/>
      </g>
     </g>
    </g>
    <g id="ytick_3">
     <g id="line2d_23">
      <path d="M 72 293.76 
L 518.4 293.76 
" clip-path="url(#p6a63a4fffb)" style="fill: none; stroke: #b0b0b0; stroke-width: 0.8; stroke-linecap: square"/>
     </g>
     <g id="line2d_24">
      <g>
       <use xlink:href="#mf31f9c0a74" x="72" y="293.76" style="stroke: #000000; stroke-width: 0.8"/>
      </g>
     </g>
     <g id="text_13">
      <!-- 5.0 -->
      <g transform="translate(49.096875 297.559219) scale(0.1 -0.1)">
       <use xlink:href="#DejaVuSans-35"/>
       <use xlink:href="#DejaVuSans-2e" transform="translate(63.623047 0)"/>
       <use xlink:href="#DejaVuSans-30" transform="translate(95.410156 0)"/>
      </g>
     </g>
    </g>
    <g id="ytick_4">
     <g id="line2d_25">
      <path d="M 72 255.96 
L 518.4 255.96 
" clip-path="url(#p6a63a4fffb)" style="fill: none; stroke: #b0b0b0; stroke-width: 0.8; stroke-linecap: square"/>
     </g>
     <g id="line2d_26">
      <g>
       <use xlink:href="#mf31f9c0a74" x="72" y="255.96" style="stroke: #000000; stroke-width: 0.8"/>
      </g>
     </g>
     <g id="text_14">
      <!-- 7.5 -->
      <g transform="translate(49.096875 259.759219) scale(0.1 -0.1)">
       <use xlink:href="#DejaVuSans-37"/>
       <use xlink:href="#DejaVuSans-2e" transform="translate(63.623047 0)"/>
       <use xlink:href="#DejaVuSans-35" transform="translate(95.410156 0)"/>
      </g>
     </g>
    </g>
    <g id="ytick_5">
     <g id="line2d_27">
      <path d="M 72 218.16 
L 518.4 218.16 
" clip-path="url(#p6a63a4fffb)" style="fill: none; stroke: #b0b0b0; stroke-width: 0.8; stroke-linecap: square"/>
     </g>
     <g id="line2d_28">
      <g>
       <use xlink:href="#mf31f9c0a74" x="72" y="218.16" style="stroke: #000000; stroke-width: 0.8"/>
      </g>
     </g>
     <g id="text_15">
      <!-- 10.0 -->
      <g transform="translate(42.734375 221.959219) scale(0.1 -0.1)">
       <use xlink:href="#DejaVuSans-31"/>
       <use xlink:href="#DejaVuSans-30" transform="translate(63.623047 0)"/>
       <use xlink:href="#DejaVuSans-2e" transform="translate(127.246094 0)"/>
       <use xlink:href="#DejaVuSans-30" transform="translate(159.033203 0)"/>
      </g>
     </g>
    </g>
    <g id="ytick_6">
     <g id="line2d_29">
      <path d="M 72 180.36 
L 518.4 180.36 
" clip-path="url(#p6a63a4fffb)" style="fill: none; stroke: #b0b0b0; stroke-width: 0.8; stroke-linecap: square"/>
     </g>
     <g id="line2d_30">
      <g>
       <use xlink:href="#mf31f9c0a74" x="72" y="180.36" style="stroke: #000000; stroke-width: 0.8"/>
      </g>
     </g>
     <g id="text_16">
      <!-- 12.5 -->
      <g transform="translate(42.734375 184.159219) scale(0.1 -0.1)">
       <use xlink:href="#DejaVuSans-31"/>
       <use xlink:href="#DejaVuSans-32" transform="translate(63.623047 0)"/>
       <use xlink:href="#DejaVuSans-2e" transform="translate(127.246094 0)"/>
       <use xlink:href="#DejaVuSans-35" transform="translate(159.033203 0)"/>
      </g>
     </g>
    </g>
    <g id="ytick_7">
     <g id="line2d_31">
      <path d="M 72 142.56 
L 518.4 142.56 
" clip-path="url(#p6a63a4fffb)" style="fill: none; stroke: #b0b0b0; stroke-width: 0.8; stroke-linecap: square"/>
     </g>
     <g id="line2d_32">
      <g>
       <use xlink:href="#mf31f9c0a74" x="72" y="142.56" style="stroke: #000000; stroke-width: 0.8"/>
      </g>
     </g>
     <g id="text_17">
      <!-- 15.0 -->
      <g transform="translate(42.734375 146.359219) scale(0.1 -0.1)">
       <use xlink:href="#DejaVuSans-31"/>
       <use xlink:href="#DejaVuSans-35" transform="translate(63.623047 0)"/>
       <use xlink:href="#DejaVuSans-2e" transform="translate(127.246094 0)"/>
       <use xlink:href="#DejaVuSans-30" transform="translate(159.033203 0)"/>
      </g>
     </g>
    </g>
    <g id="ytick_8">
     <g id="line2d_33">
      <path d="M 72 104.76 
L 518.4 104.76 
" clip-path="url(#p6a63a4fffb)" style="fill: none; stroke: #b0b0b0; stroke-width: 0.8; stroke-linecap: square"/>
     </g>
     <g id="line2d_34">
      <g>
       <use xlink:href="#mf31f9c0a74" x="72" y="104.76" style="stroke: #000000; stroke-width: 0.8"/>
      </g>
     </g>
     <g id="text_18">
      <!-- 17.5 -->
      <g transform="translate(42.734375 108.559219) scale(0.1 -0.1)">
       <use xlink:href="#DejaVuSans-31"/>
       <use xlink:href="#DejaVuSans-37" transform="translate(63.623047 0)"/>
       <use xlink:href="#DejaVuSans-2e" transform="translate(127.246094 0)"/>
       <use xlink:href="#DejaVuSans-35" transform="translate(159.033203 0)"/>
      </g>
     </g>
    </g>
    <g id="ytick_9">
     <g id="line2d_35">
      <path d="M 72 66.96 
L 518.4 66.96 
" clip-path="url(#p6a63a4fffb)" style="fill: none; stroke: #b0b0b0; stroke-width: 0.8; stroke-linecap: square"/>
     </g>
     <g id="line2d_36">
      <g>
       <use xlink:href="#mf31f9c0a74" x="72" y="66.96" style="stroke: #000000; stroke-width: 0.8"/>
      </g>
     </g>
     <g id="text_19">
      <!-- 20.0 -->
      <g transform="translate(42.734375 70.759219) scale(0.1 -0.1)">
       <use xlink:href="#DejaVuSans-32"/>
       <use xlink:href="#DejaVuSans-30" transform="translate(63.623047 0)"/>
       <use xlink:href="#DejaVuSans-2e" transform="translate(127.246094 0)"/>
       <use xlink:href="#DejaVuSans-30" transform="translate(159.033203 0)"/>
      </g>
     </g>
    </g>
    <g id="text_20">
     <!-- EDS Score -->
     <g transform="translate(36.654687 243.935) rotate(-90) scale(0.1 -0.1)">
      <defs>
       <path id="DejaVuSans-45" d="M 628 4666 
L 3578 4666 
L 3578 4134 
L 1259 4134 
L 1259 2753 
L 3481 2753 
L 3481 2222 
L 1259 2222 
L 1259 531 
L 3634 531 
L 3634 0 
L 628 0 
L 628 4666 
z
" transform="scale(0.015625)"/>
       <path id="DejaVuSans-53" d="M 3425 4513 
L 3425 3897 
Q 3066 4069 2747 4153 
Q 2428 4238 2131 4238 
Q 1616 4238 1336 4038 
Q 1056 3838 1056 3469 
Q 1056 3159 1242 3001 
Q 1428 2844 1947 2747 
L 2328 2669 
Q 3034 2534 3370 2195 
Q 3706 1856 3706 1288 
Q 3706 609 3251 259 
Q 2797 -91 1919 -91 
Q 1588 -91 1214 -16 
Q 841 59 441 206 
L 441 856 
Q 825 641 1194 531 
Q 1563 422 1919 422 
Q 2459 422 2753 634 
Q 3047 847 3047 1241 
Q 3047 1584 2836 1778 
Q 2625 1972 2144 2069 
L 1759 2144 
Q 1053 2284 737 2584 
Q 422 2884 422 3419 
Q 422 4038 858 4394 
Q 1294 4750 2059 4750 
Q 2388 4750 2728 4690 
Q 3069 4631 3425 4513 
z
" transform="scale(0.015625)"/>
       <path id="DejaVuSans-6f" d="M 1959 3097 
Q 1497 3097 1228 2736 
Q 959 2375 959 1747 
Q 959 1119 1226 758 
Q 1494 397 1959 397 
Q 2419 397 2687 759 
Q 2956 1122 2956 1747 
Q 2956 2369 2687 2733 
Q 2419 3097 1959 3097 
z
M 1959 3584 
Q 2709 3584 3137 3096 
Q 3566 2609 3566 1747 
Q 3566 888 3137 398 
Q 2709 -91 1959 -91 
Q 1206 -91 779 398 
Q 353 888 353 1747 
Q 353 2609 779 3096 
Q 1206 3584 1959 3584 
z
" transform="scale(0.015625)"/>
      </defs>
      <use xlink:href="#DejaVuSans-45"/>
      <use xlink:href="#DejaVuSans-44" transform="translate(63.183594 0)"/>
      <use xlink:href="#DejaVuSans-53" transform="translate(140.185547 0)"/>
      <use xlink:href="#DejaVuSans-20" transform="translate(203.662109 0)"/>
      <use xlink:href="#DejaVuSans-53" transform="translate(235.449219 0)"/>
      <use xlink:href="#DejaVuSans-63" transform="translate(298.925781 0)"/>
      <use xlink:href="#DejaVuSans-6f" transform="translate(353.90625 0)"/>
      <use xlink:href="#DejaVuSans-72" transform="translate(415.087891 0)"/>
      <use xlink:href="#DejaVuSans-65" transform="translate(453.951172 0)"/>
     </g>
    </g>
   </g>
   <g id="line2d_37">
    <path d="M 92.290909 270.082402 
L 96.390083 270.381437 
L 100.489256 270.680473 
L 104.58843 270.979509 
L 108.687603 271.278545 
L 112.786777 271.57758 
L 116.88595 271.876616 
L 120.985124 272.175652 
L 125.084298 272.474688 
L 129.183471 272.773723 
L 133.282645 273.072759 
L 137.381818 273.371795 
L 141.480992 273.670831 
L 145.580165 273.969866 
L 149.679339 274.268902 
L 153.778512 274.567938 
L 157.877686 274.866973 
L 161.97686 275.166009 
L 166.076033 275.465045 
L 170.175207 275.764081 
L 174.27438 276.063116 
L 178.373554 276.362152 
L 182.472727 276.661188 
L 186.571901 276.960224 
L 190.671074 277.259259 
L 194.770248 277.558295 
L 198.869421 277.857331 
L 202.968595 278.156367 
L 207.067769 278.455402 
L 211.166942 278.754438 
L 215.266116 279.053474 
L 219.365289 279.352509 
L 223.464463 279.651545 
L 227.563636 279.950581 
L 231.66281 280.249617 
L 235.761983 280.548652 
L 239.861157 280.847688 
L 243.960331 281.146724 
L 248.059504 281.44576 
L 252.158678 281.744795 
L 256.257851 282.043831 
L 260.357025 282.342867 
L 264.456198 282.641903 
L 268.555372 282.940938 
L 272.654545 283.239974 
L 276.753719 283.53901 
L 280.852893 283.838045 
L 284.952066 284.137081 
L 289.05124 284.436117 
L 293.150413 284.735153 
L 297.249587 285.034188 
L 301.34876 285.333224 
L 305.447934 285.63226 
L 309.547107 285.931296 
L 313.646281 286.230331 
L 317.745455 286.529367 
L 321.844628 286.828403 
L 325.943802 287.127439 
L 330.042975 287.426474 
L 334.142149 287.72551 
L 338.241322 288.024546 
L 342.340496 288.323581 
L 346.439669 288.622617 
L 350.538843 288.921653 
L 354.638017 289.220689 
L 358.73719 289.519724 
L 362.836364 289.81876 
L 366.935537 290.117796 
L 371.034711 290.416832 
L 375.133884 290.715867 
L 379.233058 291.014903 
L 383.332231 291.313939 
L 387.431405 291.612975 
L 391.530579 291.91201 
L 395.629752 292.211046 
L 399.728926 292.510082 
L 403.828099 292.809117 
L 407.927273 293.108153 
L 412.026446 293.407189 
L 416.12562 293.706225 
L 420.224793 294.00526 
L 424.323967 294.304296 
L 428.42314 294.603332 
L 432.522314 294.902368 
L 436.621488 295.201403 
L 440.720661 295.500439 
L 444.819835 295.799475 
L 448.919008 296.098511 
L 453.018182 296.397546 
L 457.117355 296.696582 
L 461.216529 296.995618 
L 465.315702 297.294653 
L 469.414876 297.593689 
L 473.51405 297.892725 
L 477.613223 298.191761 
L 481.712397 298.490796 
L 485.81157 298.789832 
L 489.910744 299.088868 
L 494.009917 299.387904 
L 498.109091 299.686939 
" clip-path="url(#p6a63a4fffb)" style="fill: none; stroke-dasharray: 5.55,2.4; stroke-dashoffset: 0; stroke: #800080; stroke-width: 1.5"/>
   </g>
   <g id="patch_3">
    <path d="M 72 384.48 
L 72 51.84 
" style="fill: none; stroke: #000000; stroke-width: 0.8; stroke-linejoin: miter; stroke-linecap: square"/>
   </g>
   <g id="patch_4">
    <path d="M 518.4 384.48 
L 518.4 51.84 
" style="fill: none; stroke: #000000; stroke-width: 0.8; stroke-linejoin: miter; stroke-linecap: square"/>
   </g>
   <g id="patch_5">
    <path d="M 72 384.48 
L 518.4 384.48 
" style="fill: none; stroke: #000000; stroke-width: 0.8; stroke-linejoin: miter; stroke-linecap: square"/>
   </g>
   <g id="patch_6">
    <path d="M 72 51.84 
L 518.4 51.84 
" style="fill: none; stroke: #000000; stroke-width: 0.8; stroke-linejoin: miter; stroke-linecap: square"/>
   </g>
   <g id="text_21">
    <!-- Combined Linear Regression of Displacement Magnitude vs. EDS -->
    <g transform="translate(100.281563 45.84) scale(0.12 -0.12)">
     <defs>
      <path id="DejaVuSans-43" d="M 4122 4306 
L 4122 3641 
Q 3803 3938 3442 4084 
Q 3081 4231 2675 4231 
Q 1875 4231 1450 3742 
Q 1025 3253 1025 2328 
Q 1025 1406 1450 917 
Q 1875 428 2675 428 
Q 3081 428 3442 575 
Q 3803 722 4122 1019 
L 4122 359 
Q 3791 134 3420 21 
Q 3050 -91 2638 -91 
Q 1578 -91 968 557 
Q 359 1206 359 2328 
Q 359 3453 968 4101 
Q 1578 4750 2638 4750 
Q 3056 4750 3426 4639 
Q 3797 4528 4122 4306 
z
" transform="scale(0.015625)"/>
      <path id="DejaVuSans-62" d="M 3116 1747 
Q 3116 2381 2855 2742 
Q 2594 3103 2138 3103 
Q 1681 3103 1420 2742 
Q 1159 2381 1159 1747 
Q 1159 1113 1420 752 
Q 1681 391 2138 391 
Q 2594 391 2855 752 
Q 3116 1113 3116 1747 
z
M 1159 2969 
Q 1341 3281 1617 3432 
Q 1894 3584 2278 3584 
Q 2916 3584 3314 3078 
Q 3713 2572 3713 1747 
Q 3713 922 3314 415 
Q 2916 -91 2278 -91 
Q 1894 -91 1617 61 
Q 1341 213 1159 525 
L 1159 0 
L 581 0 
L 581 4863 
L 1159 4863 
L 1159 2969 
z
" transform="scale(0.015625)"/>
      <path id="DejaVuSans-4c" d="M 628 4666 
L 1259 4666 
L 1259 531 
L 3531 531 
L 3531 0 
L 628 0 
L 628 4666 
z
" transform="scale(0.015625)"/>
      <path id="DejaVuSans-52" d="M 2841 2188 
Q 3044 2119 3236 1894 
Q 3428 1669 3622 1275 
L 4263 0 
L 3584 0 
L 2988 1197 
Q 2756 1666 2539 1819 
Q 2322 1972 1947 1972 
L 1259 1972 
L 1259 0 
L 628 0 
L 628 4666 
L 2053 4666 
Q 2853 4666 3247 4331 
Q 3641 3997 3641 3322 
Q 3641 2881 3436 2590 
Q 3231 2300 2841 2188 
z
M 1259 4147 
L 1259 2491 
L 2053 2491 
Q 2509 2491 2742 2702 
Q 2975 2913 2975 3322 
Q 2975 3731 2742 3939 
Q 2509 4147 2053 4147 
L 1259 4147 
z
" transform="scale(0.015625)"/>
      <path id="DejaVuSans-66" d="M 2375 4863 
L 2375 4384 
L 1825 4384 
Q 1516 4384 1395 4259 
Q 1275 4134 1275 3809 
L 1275 3500 
L 2222 3500 
L 2222 3053 
L 1275 3053 
L 1275 0 
L 697 0 
L 697 3053 
L 147 3053 
L 147 3500 
L 697 3500 
L 697 3744 
Q 697 4328 969 4595 
Q 1241 4863 1831 4863 
L 2375 4863 
z
" transform="scale(0.015625)"/>
     </defs>
     <use xlink:href="#DejaVuSans-43"/>
     <use xlink:href="#DejaVuSans-6f" transform="translate(69.824219 0)"/>
     <use xlink:href="#DejaVuSans-6d" transform="translate(131.005859 0)"/>
     <use xlink:href="#DejaVuSans-62" transform="translate(228.417969 0)"/>
     <use xlink:href="#DejaVuSans-69" transform="translate(291.894531 0)"/>
     <use xlink:href="#DejaVuSans-6e" transform="translate(319.677734 0)"/>
     <use xlink:href="#DejaVuSans-65" transform="translate(383.056641 0)"/>
     <use xlink:href="#DejaVuSans-64" transform="translate(444.580078 0)"/>
     <use xlink:href="#DejaVuSans-20" transform="translate(508.056641 0)"/>
     <use xlink:href="#DejaVuSans-4c" transform="translate(539.84375 0)"/>
     <use xlink:href="#DejaVuSans-69" transform="translate(595.556641 0)"/>
     <use xlink:href="#DejaVuSans-6e" transform="translate(623.339844 0)"/>
     <use xlink:href="#DejaVuSans-65" transform="translate(686.71875 0)"/>
     <use xlink:href="#DejaVuSans-61" transform="translate(748.242188 0)"/>
     <use xlink:href="#DejaVuSans-72" transform="translate(809.521484 0)"/>
     <use xlink:href="#DejaVuSans-20" transform="translate(850.634766 0)"/>
     <use xlink:href="#DejaVuSans-52" transform="translate(882.421875 0)"/>
     <use xlink:href="#DejaVuSans-65" transform="translate(947.404297 0)"/>
     <use xlink:href="#DejaVuSans-67" transform="translate(1008.927734 0)"/>
     <use xlink:href="#DejaVuSans-72" transform="translate(1072.404297 0)"/>
     <use xlink:href="#DejaVuSans-65" transform="translate(1111.267578 0)"/>
     <use xlink:href="#DejaVuSans-73" transform="translate(1172.791016 0)"/>
     <use xlink:href="#DejaVuSans-73" transform="translate(1224.890625 0)"/>
     <use xlink:href="#DejaVuSans-69" transform="translate(1276.990234 0)"/>
     <use xlink:href="#DejaVuSans-6f" transform="translate(1304.773438 0)"/>
     <use xlink:href="#DejaVuSans-6e" transform="translate(1365.955078 0)"/>
     <use xlink:href="#DejaVuSans-20" transform="translate(1429.333984 0)"/>
     <use xlink:href="#DejaVuSans-6f" transform="translate(1461.121094 0)"/>
     <use xlink:href="#DejaVuSans-66" transform="translate(1522.302734 0)"/>
     <use xlink:href="#DejaVuSans-20" transform="translate(1557.507812 0)"/>
     <use xlink:href="#DejaVuSans-44" transform="translate(1589.294922 0)"/>
     <use xlink:href="#DejaVuSans-69" transform="translate(1666.296875 0)"/>
     <use xlink:href="#DejaVuSans-73" transform="translate(1694.080078 0)"/>
     <use xlink:href="#DejaVuSans-70" transform="translate(1746.179688 0)"/>
     <use xlink:href="#DejaVuSans-6c" transform="translate(1809.65625 0)"/>
     <use xlink:href="#DejaVuSans-61" transform="translate(1837.439453 0)"/>
     <use xlink:href="#DejaVuSans-63" transform="translate(1898.71875 0)"/>
     <use xlink:href="#DejaVuSans-65" transform="translate(1953.699219 0)"/>
     <use xlink:href="#DejaVuSans-6d" transform="translate(2015.222656 0)"/>
     <use xlink:href="#DejaVuSans-65" transform="translate(2112.634766 0)"/>
     <use xlink:href="#DejaVuSans-6e" transform="translate(2174.158203 0)"/>
     <use xlink:href="#DejaVuSans-74" transform="translate(2237.537109 0)"/>
     <use xlink:href="#DejaVuSans-20" transform="translate(2276.746094 0)"/>
     <use xlink:href="#DejaVuSans-4d" transform="translate(2308.533203 0)"/>
     <use xlink:href="#DejaVuSans-61" transform="translate(2394.8125 0)"/>
     <use xlink:href="#DejaVuSans-67" transform="translate(2456.091797 0)"/>
     <use xlink:href="#DejaVuSans-6e" transform="translate(2519.568359 0)"/>
     <use xlink:href="#DejaVuSans-69" transform="translate(2582.947266 0)"/>
     <use xlink:href="#DejaVuSans-74" transform="translate(2610.730469 0)"/>
     <use xlink:href="#DejaVuSans-75" transform="translate(2649.939453 0)"/>
     <use xlink:href="#DejaVuSans-64" transform="translate(2713.318359 0)"/>
     <use xlink:href="#DejaVuSans-65" transform="translate(2776.794922 0)"/>
     <use xlink:href="#DejaVuSans-20" transform="translate(2838.318359 0)"/>
     <use xlink:href="#DejaVuSans-76" transform="translate(2870.105469 0)"/>
     <use xlink:href="#DejaVuSans-73" transform="translate(2929.285156 0)"/>
     <use xlink:href="#DejaVuSans-2e" transform="translate(2981.384766 0)"/>
     <use xlink:href="#DejaVuSans-20" transform="translate(3013.171875 0)"/>
     <use xlink:href="#DejaVuSans-45" transform="translate(3044.958984 0)"/>
     <use xlink:href="#DejaVuSans-44" transform="translate(3108.142578 0)"/>
     <use xlink:href="#DejaVuSans-53" transform="translate(3185.144531 0)"/>
    </g>
   </g>
   <g id="legend_1">
    <g id="patch_7">
     <path d="M 370.721875 103.874375 
L 511.4 103.874375 
Q 513.4 103.874375 513.4 101.874375 
L 513.4 58.84 
Q 513.4 56.84 511.4 56.84 
L 370.721875 56.84 
Q 368.721875 56.84 368.721875 58.84 
L 368.721875 101.874375 
Q 368.721875 103.874375 370.721875 103.874375 
z
" style="fill: #ffffff; opacity: 0.8; stroke: #cccccc; stroke-linejoin: miter"/>
    </g>
    <g id="PathCollection_3">
     <g>
      <use xlink:href="#m25465d2ed6" x="382.721875" y="65.813437" style="fill: #008000; stroke: #008000"/>
     </g>
    </g>
    <g id="text_22">
     <!-- Healthy Mothers -->
     <g transform="translate(400.721875 68.438437) scale(0.1 -0.1)">
      <defs>
       <path id="DejaVuSans-48" d="M 628 4666 
L 1259 4666 
L 1259 2753 
L 3553 2753 
L 3553 4666 
L 4184 4666 
L 4184 0 
L 3553 0 
L 3553 2222 
L 1259 2222 
L 1259 0 
L 628 0 
L 628 4666 
z
" transform="scale(0.015625)"/>
       <path id="DejaVuSans-68" d="M 3513 2113 
L 3513 0 
L 2938 0 
L 2938 2094 
Q 2938 2591 2744 2837 
Q 2550 3084 2163 3084 
Q 1697 3084 1428 2787 
Q 1159 2491 1159 1978 
L 1159 0 
L 581 0 
L 581 4863 
L 1159 4863 
L 1159 2956 
Q 1366 3272 1645 3428 
Q 1925 3584 2291 3584 
Q 2894 3584 3203 3211 
Q 3513 2838 3513 2113 
z
" transform="scale(0.015625)"/>
       <path id="DejaVuSans-79" d="M 2059 -325 
Q 1816 -950 1584 -1140 
Q 1353 -1331 966 -1331 
L 506 -1331 
L 506 -850 
L 844 -850 
Q 1081 -850 1212 -737 
Q 1344 -625 1503 -206 
L 1606 56 
L 191 3500 
L 800 3500 
L 1894 763 
L 2988 3500 
L 3597 3500 
L 2059 -325 
z
" transform="scale(0.015625)"/>
      </defs>
      <use xlink:href="#DejaVuSans-48"/>
      <use xlink:href="#DejaVuSans-65" transform="translate(75.195312 0)"/>
      <use xlink:href="#DejaVuSans-61" transform="translate(136.71875 0)"/>
      <use xlink:href="#DejaVuSans-6c" transform="translate(197.998047 0)"/>
      <use xlink:href="#DejaVuSans-74" transform="translate(225.78125 0)"/>
      <use xlink:href="#DejaVuSans-68" transform="translate(264.990234 0)"/>
      <use xlink:href="#DejaVuSans-79" transform="translate(328.369141 0)"/>
      <use xlink:href="#DejaVuSans-20" transform="translate(387.548828 0)"/>
      <use xlink:href="#DejaVuSans-4d" transform="translate(419.335938 0)"/>
      <use xlink:href="#DejaVuSans-6f" transform="translate(505.615234 0)"/>
      <use xlink:href="#DejaVuSans-74" transform="translate(566.796875 0)"/>
      <use xlink:href="#DejaVuSans-68" transform="translate(606.005859 0)"/>
      <use xlink:href="#DejaVuSans-65" transform="translate(669.384766 0)"/>
      <use xlink:href="#DejaVuSans-72" transform="translate(730.908203 0)"/>
      <use xlink:href="#DejaVuSans-73" transform="translate(772.021484 0)"/>
     </g>
    </g>
    <g id="PathCollection_4">
     <g>
      <use xlink:href="#ma51f42e7ed" x="382.721875" y="80.491562" style="fill: #0000ff; stroke: #0000ff"/>
     </g>
    </g>
    <g id="text_23">
     <!-- Depressed Mothers -->
     <g transform="translate(400.721875 83.116562) scale(0.1 -0.1)">
      <use xlink:href="#DejaVuSans-44"/>
      <use xlink:href="#DejaVuSans-65" transform="translate(77.001953 0)"/>
      <use xlink:href="#DejaVuSans-70" transform="translate(138.525391 0)"/>
      <use xlink:href="#DejaVuSans-72" transform="translate(202.001953 0)"/>
      <use xlink:href="#DejaVuSans-65" transform="translate(240.865234 0)"/>
      <use xlink:href="#DejaVuSans-73" transform="translate(302.388672 0)"/>
      <use xlink:href="#DejaVuSans-73" transform="translate(354.488281 0)"/>
      <use xlink:href="#DejaVuSans-65" transform="translate(406.587891 0)"/>
      <use xlink:href="#DejaVuSans-64" transform="translate(468.111328 0)"/>
      <use xlink:href="#DejaVuSans-20" transform="translate(531.587891 0)"/>
      <use xlink:href="#DejaVuSans-4d" transform="translate(563.375 0)"/>
      <use xlink:href="#DejaVuSans-6f" transform="translate(649.654297 0)"/>
      <use xlink:href="#DejaVuSans-74" transform="translate(710.835938 0)"/>
      <use xlink:href="#DejaVuSans-68" transform="translate(750.044922 0)"/>
      <use xlink:href="#DejaVuSans-65" transform="translate(813.423828 0)"/>
      <use xlink:href="#DejaVuSans-72" transform="translate(874.947266 0)"/>
      <use xlink:href="#DejaVuSans-73" transform="translate(916.060547 0)"/>
     </g>
    </g>
    <g id="line2d_38">
     <path d="M 372.721875 94.294687 
L 382.721875 94.294687 
L 392.721875 94.294687 
" style="fill: none; stroke-dasharray: 5.55,2.4; stroke-dashoffset: 0; stroke: #800080; stroke-width: 1.5"/>
    </g>
    <g id="text_24">
     <!-- Combined Regression -->
     <g transform="translate(400.721875 97.794687) scale(0.1 -0.1)">
      <use xlink:href="#DejaVuSans-43"/>
      <use xlink:href="#DejaVuSans-6f" transform="translate(69.824219 0)"/>
      <use xlink:href="#DejaVuSans-6d" transform="translate(131.005859 0)"/>
      <use xlink:href="#DejaVuSans-62" transform="translate(228.417969 0)"/>
      <use xlink:href="#DejaVuSans-69" transform="translate(291.894531 0)"/>
      <use xlink:href="#DejaVuSans-6e" transform="translate(319.677734 0)"/>
      <use xlink:href="#DejaVuSans-65" transform="translate(383.056641 0)"/>
      <use xlink:href="#DejaVuSans-64" transform="translate(444.580078 0)"/>
      <use xlink:href="#DejaVuSans-20" transform="translate(508.056641 0)"/>
      <use xlink:href="#DejaVuSans-52" transform="translate(539.84375 0)"/>
      <use xlink:href="#DejaVuSans-65" transform="translate(604.826172 0)"/>
      <use xlink:href="#DejaVuSans-67" transform="translate(666.349609 0)"/>
      <use xlink:href="#DejaVuSans-72" transform="translate(729.826172 0)"/>
      <use xlink:href="#DejaVuSans-65" transform="translate(768.689453 0)"/>
      <use xlink:href="#DejaVuSans-73" transform="translate(830.212891 0)"/>
      <use xlink:href="#DejaVuSans-73" transform="translate(882.3125 0)"/>
      <use xlink:href="#DejaVuSans-69" transform="translate(934.412109 0)"/>
      <use xlink:href="#DejaVuSans-6f" transform="translate(962.195312 0)"/>
      <use xlink:href="#DejaVuSans-6e" transform="translate(1023.376953 0)"/>
     </g>
    </g>
   </g>
  </g>
 </g>
 <defs>
  <clipPath id="p6a63a4fffb">
   <rect x="72" y="51.84" width="446.4" height="332.64"/>
  </clipPath>
 </defs>
</svg>
